{"title":"Six.Nations.Rugby.Union-Scotland.v.Italy-2013.02.09.720p.x264 ","uid":8124015,"size":2820756898,"categoryP":"video","categoryS":"hd___tv_shows","magnet":"?xt=urn:btih:7465b34e364cb946bc4d735569b26562d55b8b06&amp;dn=Six.Nations.Rugby.Union-Scotland.v.Italy-2013.02.09.720p.x264+&amp;tr=udp%3A%2F%2Ftracker.openbittorrent.com%3A80&amp;tr=udp%3A%2F%2Fopen.demonii.com%3A1337&amp;tr=udp%3A%2F%2Ftracker.coppersurfer.tk%3A6969&amp;tr=udp%3A%2F%2Fexodus.desync.com%3A6969","seeders":1,"leechers":0,"uploader":"rugbybill","files":2,"time":1360452246,"description":"SPORT: Six Nations Rugby Union - Scotland v Italy\nOn: BBC 1 HD \nDate: Saturday 9th February 2013 \nKO Time: 14:30 \n\nCoverage from Edinburgh, where Scotland host Italy in the second weekend of the 2013 Six Nations. In recent years, these two teams have battled it out to avoid the dreaded wooden spoon, given to the team that finishes last in the tournament. Murrayfield is the only away ground where Italy have enjoyed a Six Nations victory, so no doubt they will be looking to draw on that famous 37-17 victory six years ago. But having lost four of their last six matches against the Azzurri in the Six Nations, Scotland will be determined not to suffer another upset on home soil. Match commentary comes from Alastair Eykyn and Lawrence Dallaglio.\n\n\nGeneral\nComplete name: 2013.02.09.6N.Scotland.v.Italy.720p.x264.mp4\nFormat: MPEG-4\nFormat profile: Base Media\nCodec ID: isom\nFile size: 2.63 GiB\nDuration: 1h 46mn\nOverall bit rate mode: Variable\nOverall bit rate: 3 525 Kbps\n\nVideo\nID: 1\nFormat: AVC\nFormat/Info: Advanced Video Codec\nFormat profile: &lt;a class=&quot;__cf_email__&quot; href=&quot;/cdn-cgi/l/email-protection&quot; data-cfemail=&quot;266e4f414e666a120817&quot;&gt;[email&amp;#160;protected]&lt;/a&gt;&lt;script cf-hash='f9e31' type=&quot;text/javascript&quot;&gt;\n/* &lt;![CDATA[ */!function(){try{var t=&quot;currentScript&quot;in document?document.currentScript:function(){for(var t=document.getElementsByTagName(&quot;script&quot;),e=t.length;e--;)if(t[e].getAttribute(&quot;cf-hash&quot;))return t[e]}();if(t&amp;&amp;t.previousSibling){var e,r,n,i,c=t.previousSibling,a=c.getAttribute(&quot;data-cfemail&quot;);if(a){for(e=&quot;&quot;,r=parseInt(a.substr(0,2),16),n=2;a.length-n;n+=2)i=parseInt(a.substr(n,2),16)^r,e+=String.fromCharCode(i);e=document.createTextNode(e),c.parentNode.replaceChild(e,c)}}}catch(u){}}();/* ]]&gt; */&lt;/script&gt;\nFormat settings, CABAC: Yes\nFormat settings, ReFrames: 5 frames\nCodec ID: avc1\nCodec ID/Info: Advanced Video Coding\nDuration: 1h 46mn\nBit rate: 3 397 Kbps\nMaximum bit rate: 9 695 Kbps\nWidth: 1 280 pixels\nHeight: 720 pixels\nDisplay aspect ratio: 16:9\nFrame rate mode: Constant\nFrame rate: 25.000 fps\nColor space: YUV\nChroma subsampling: 4:2:0\nBit depth: 8 bits\nScan type: Progressive\nBits/(Pixel*Frame): 0.147\nStream size: 2.53 GiB (96%)\nWriting library: x264 core 129 r2245 bc13772\n\nAudio\nID: 2\nFormat: AAC\nFormat/Info: Advanced Audio Codec\nFormat profile: LC\nCodec ID: 40\nDuration: 1h 46mn\nBit rate mode: Variable\nBit rate: 124 Kbps\nMaximum bit rate: 130 Kbps\nChannel(s): 2 channels\nChannel positions: Front: L R\nSampling rate: 48.0 KHz\nCompression mode: Lossy\nDelay relative to video: 80ms\nStream size: 94.5 MiB (4%)\nLanguage: English","torrent":{"xt":"urn:btih:7465b34e364cb946bc4d735569b26562d55b8b06","amp;dn":"Six.Nations.Rugby.Union-Scotland.v.Italy-2013.02.09.720p.x264+","amp;tr":["udp%3A%2F%2Ftracker.openbittorrent.com%3A80","udp%3A%2F%2Fopen.demonii.com%3A1337","udp%3A%2F%2Ftracker.coppersurfer.tk%3A6969","udp%3A%2F%2Fexodus.desync.com%3A6969"],"infoHash":"7465b34e364cb946bc4d735569b26562d55b8b06","infoHashBuffer":{"type":"Buffer","data":[116,101,179,78,54,76,185,70,188,77,115,85,105,178,101,98,213,91,139,6]},"announce":[],"urlList":[]}}